<?xml version="1.0" encoding="UTF-8"?>
<svg id="Layer_2" data-name="Layer 2" xmlns="http://www.w3.org/2000/svg" viewBox="0 0 2867.08 1805.77">
  <defs>
    <style>
      .cls-1 {
        fill: #fee4a1;
      }

      .cls-2 {
        fill: #bcdeae;
      }
    </style>
  </defs>
  <g id="Layer_1-2" data-name="Layer 1">
    <g>
      <g id="JRLgnD">
        <path class="cls-2" d="M907.84,1665.35c13.28-11.29,30.16-14.84,44.23-23.33,17.11-10.32,34.89-19.52,52.1-29.69,48.96-28.95,63.87-73.76,57.77-127.5-2.9-25.61-7.6-51.02-11.53-76.51-.85-5.49-3.54-10.99,.76-18.38,12.93,16.85,18.63,35.96,28.52,52.69,8.2,13.88,15.62,28.23,24.18,41.88,26.37,42.05,63.96,62.03,114.12,58.33,29.03-2.14,57.75-5.86,86.3-11.39,7.27-1.41,14.68-5.38,24.63,.62-24.15,12.47-46.88,24.1-69.5,35.94-7.42,3.89-14.54,8.36-21.8,12.55-48.18,27.78-68.56,69.52-64.07,124.68,2.72,33.38,9.77,66.11,14.2,100.52-9.45-1.14-10.16-8.29-12.57-13.5-11.7-25.17-24.44-49.74-38.51-73.71-29.05-49.47-72.1-70.36-128.4-64.15-28.84,3.18-57.47,8.2-86.21,12.24-4.18,.59-8.54,3.4-14.21-1.3Z"/>
      </g>
      <path class="cls-1" d="M1013.72,1547.76c-219.32,63.01-399.48,60.96-510.72,51.02-179.18-16.01-337.05-30.11-431.4-155.06C-13.7,1330.75-.21,1189.25,2.25,1166.7c7.72-70.58,33.88-132.97,90.98-217.45,118.01-174.59,260.52-284.26,357.32-352.12,218.13-152.92,428.51-250.81,606.17-318.27,312.75-118.76,571.37-161.19,573.39-153.77,1.98,7.26-243.53,56.54-563.68,208.1-213.99,101.31-342.38,192-396.88,232.21-159.2,117.45-259.13,191.18-334.02,329.4-27.54,50.83-164.28,303.23-52.07,474.9,64.64,98.89,188.98,135.92,258.79,156.7,75.55,22.49,139.48,25.07,231.66,28.8,98.2,3.96,180.53-1.34,239.79-7.45Z"/>
    </g>
    <g>
      <g id="JRLgnD-2" data-name="JRLgnD">
        <path class="cls-2" d="M1938.34,127.1c-12.73,11.9-29.43,16.24-43.08,25.38-16.6,11.12-33.94,21.14-50.64,32.11-47.54,31.22-60.32,76.69-51.71,130.07,4.11,25.45,9.99,50.61,15.12,75.89,1.1,5.45,4.05,10.81,.1,18.39-13.71-16.22-20.31-35.05-30.97-51.29-8.85-13.48-16.93-27.47-26.12-40.7-28.31-40.76-66.81-58.95-116.74-52.9-28.9,3.5-57.41,8.57-85.67,15.44-7.19,1.75-14.41,6.06-24.63,.54,23.54-13.59,45.7-26.28,67.73-39.17,7.23-4.23,14.13-9.04,21.19-13.56,46.82-30.01,65.21-72.67,58.13-127.55-4.29-33.21-12.87-65.58-18.91-99.74,9.5,.69,10.54,7.81,13.2,12.89,12.87,24.59,26.75,48.54,41.94,71.82,31.34,48.05,75.33,66.89,131.28,58.04,28.65-4.53,57.02-10.89,85.54-16.28,4.15-.78,8.37-3.8,14.25,.63Z"/>
      </g>
      <path class="cls-1" d="M1838.12,249.54c216.12-73.25,396.17-79.69,507.76-75,179.73,7.56,338.09,14.22,438.21,134.6,90.52,108.83,83.7,250.81,82.3,273.45-4.39,70.87-27.59,134.41-80.65,221.48-109.66,179.95-246.86,296.2-340.36,368.54-210.7,163.01-416.24,270.69-590.53,346.43-306.82,133.35-563.15,187.89-565.52,180.58-2.32-7.16,240.6-67.93,553.27-234.39,208.99-111.26,332.97-207.9,385.51-250.63,153.5-124.81,249.85-203.16,318.15-344.75,25.12-52.07,149.83-310.63,29.67-476.82-69.22-95.74-195.17-126.87-265.88-144.35-76.52-18.91-140.5-18.49-232.76-17.87-98.27,.66-180.26,9.83-239.17,18.72Z"/>
    </g>
  </g>
</svg>